<svg xmlns="http://www.w3.org/2000/svg" xmlns:osb="http://www.openswatchbook.org/uri/2009/osb" xmlns:svg="http://www.w3.org/2000/svg" id="svg7384" width="16" height="16" version="1.1" style="enable-background:new"><metadata id="metadata90"/><title id="title8473">Pop Symbolic Icon Theme</title><defs id="defs7386"><linearGradient id="linearGradient6882" osb:paint="solid"><stop id="stop6884" offset="0" style="stop-color:#555;stop-opacity:1"/></linearGradient><linearGradient id="linearGradient5606" osb:paint="solid"><stop id="stop5608" offset="0" style="stop-color:#000;stop-opacity:1"/></linearGradient><filter id="filter7554" style="color-interpolation-filters:sRGB"><feBlend id="feBlend7556" in2="BackgroundImage" mode="darken"/></filter></defs><g id="layer3" transform="translate(-864,-151.99664)"><path id="path6863" d="m 868,153 c -0.554,0 -1,0.446 -1,1 v 1 h -2 c -0.554,0 -1,0.446 -1,1 v 8 c 0,0.554 0.446,1 1,1 h 2 v 1 c 0,0.554 0.446,1 1,1 0.554,0 1,-0.446 1,-1 v -1 h 2 v 1 c 0,0.554 0.446,1 1,1 0.554,0 1,-0.446 1,-1 v -1 h 2 v 1 c 0,0.554 0.446,1 1,1 0.554,0 1,-0.446 1,-1 v -1 h 2 c 0.554,0 1,-0.446 1,-1 v -4 -4 c 0,-0.554 -0.446,-1 -1,-1 h -2 v -1 c 0,-0.554 -0.446,-1 -1,-1 -0.554,0 -1,0.446 -1,1 v 1 h -2 v -1 c 0,-0.554 -0.446,-1 -1,-1 -0.554,0 -1,0.446 -1,1 v 1 h -2 v -1 c 0,-0.554 -0.446,-1 -1,-1 z m -2,4 h 12 v 1 a 2,2 0 0 0 -2,2 2,2 0 0 0 2,2 v 1 h -12 z" style="display:inline;opacity:1;vector-effect:none;fill:#4c5263;fill-opacity:1;stroke:none;stroke-width:2;stroke-linecap:square;stroke-opacity:.09803922;enable-background:new"/></g></svg>